<mxfile host="app.diagrams.net" modified="2024-05-18T17:29:30.364Z" agent="Mozilla/5.0 (Windows NT 10.0; Win64; x64; rv:124.0) Gecko/20100101 Firefox/124.0" etag="bRjqm8DZ7dLZ3QCPXXus" version="24.4.4" type="google">
  <diagram name="Sayfa -1" id="4K7TeuvcbCnwFAYkKFgJ">
    <mxGraphModel grid="1" page="1" gridSize="10" guides="1" tooltips="1" connect="1" arrows="1" fold="1" pageScale="1" pageWidth="827" pageHeight="1169" math="0" shadow="0">
      <root>
        <mxCell id="0" />
        <mxCell id="1" parent="0" />
        <mxCell id="CI_QqTWLjoRGF37UJHZO-28" style="edgeStyle=orthogonalEdgeStyle;rounded=0;orthogonalLoop=1;jettySize=auto;html=1;exitX=1;exitY=0.25;exitDx=0;exitDy=0;entryX=0;entryY=0.25;entryDx=0;entryDy=0;endSize=12;" edge="1" parent="1" source="CI_QqTWLjoRGF37UJHZO-1" target="CI_QqTWLjoRGF37UJHZO-18">
          <mxGeometry relative="1" as="geometry" />
        </mxCell>
        <mxCell id="CI_QqTWLjoRGF37UJHZO-1" value="&lt;p style=&quot;margin:0px;margin-top:4px;text-align:center;&quot;&gt;&lt;i&gt;&amp;lt;&amp;lt;Interface&amp;gt;&amp;gt;&lt;/i&gt;&lt;br&gt;&lt;b&gt;CompanyInterface&lt;/b&gt;&lt;/p&gt;&lt;hr size=&quot;1&quot; style=&quot;border-style:solid;&quot;&gt;&lt;hr size=&quot;1&quot; style=&quot;border-style:solid;&quot;&gt;&lt;p style=&quot;margin:0px;margin-left:4px;&quot;&gt;&lt;i&gt;+ addEmployee(EmployeeInterface)&lt;/i&gt;&lt;/p&gt;&lt;p style=&quot;margin:0px;margin-left:4px;&quot;&gt;&lt;i&gt;+ removeEmployee(EmployeeInterface): Boolean&lt;br&gt;&lt;/i&gt;&lt;/p&gt;&lt;p style=&quot;margin:0px;margin-left:4px;&quot;&gt;&lt;i&gt;+ getEmployees():&amp;nbsp; Array&amp;lt;EmployeeInterface&amp;gt;&lt;/i&gt;&lt;/p&gt;&lt;p style=&quot;margin:0px;margin-left:4px;&quot;&gt;&lt;i&gt;+ getName(): String&lt;/i&gt;&lt;/p&gt;&lt;p style=&quot;margin:0px;margin-left:4px;&quot;&gt;&lt;i&gt;+ setName(String)&lt;/i&gt;&lt;br&gt;&lt;/p&gt;" style="verticalAlign=top;align=left;overflow=fill;html=1;whiteSpace=wrap;" vertex="1" parent="1">
          <mxGeometry x="220" y="830" width="280" height="140" as="geometry" />
        </mxCell>
        <mxCell id="CI_QqTWLjoRGF37UJHZO-13" style="edgeStyle=orthogonalEdgeStyle;rounded=0;orthogonalLoop=1;jettySize=auto;html=1;exitX=0.5;exitY=0;exitDx=0;exitDy=0;entryX=0.5;entryY=1;entryDx=0;entryDy=0;endSize=18;endArrow=block;endFill=0;dashed=1;" edge="1" parent="1" source="CI_QqTWLjoRGF37UJHZO-3" target="CI_QqTWLjoRGF37UJHZO-1">
          <mxGeometry relative="1" as="geometry" />
        </mxCell>
        <mxCell id="CI_QqTWLjoRGF37UJHZO-3" value="CompanyStructure" style="swimlane;fontStyle=1;align=center;verticalAlign=top;childLayout=stackLayout;horizontal=1;startSize=26;horizontalStack=0;resizeParent=1;resizeParentMax=0;resizeLast=0;collapsible=1;marginBottom=0;whiteSpace=wrap;html=1;" vertex="1" parent="1">
          <mxGeometry x="40" y="1084" width="280" height="160" as="geometry" />
        </mxCell>
        <mxCell id="CI_QqTWLjoRGF37UJHZO-4" value="&lt;div&gt;- Name: String&lt;br&gt;&lt;/div&gt;" style="text;strokeColor=none;fillColor=none;align=left;verticalAlign=top;spacingLeft=4;spacingRight=4;overflow=hidden;rotatable=0;points=[[0,0.5],[1,0.5]];portConstraint=eastwest;whiteSpace=wrap;html=1;" vertex="1" parent="CI_QqTWLjoRGF37UJHZO-3">
          <mxGeometry y="26" width="280" height="26" as="geometry" />
        </mxCell>
        <mxCell id="CI_QqTWLjoRGF37UJHZO-5" value="" style="line;strokeWidth=1;fillColor=none;align=left;verticalAlign=middle;spacingTop=-1;spacingLeft=3;spacingRight=3;rotatable=0;labelPosition=right;points=[];portConstraint=eastwest;strokeColor=inherit;" vertex="1" parent="CI_QqTWLjoRGF37UJHZO-3">
          <mxGeometry y="52" width="280" height="8" as="geometry" />
        </mxCell>
        <mxCell id="CI_QqTWLjoRGF37UJHZO-6" value="&lt;p style=&quot;margin:0px;margin-left:4px;&quot;&gt;+ addEmployee(EmployeeInterface)&lt;/p&gt;&lt;p style=&quot;margin:0px;margin-left:4px;&quot;&gt;+ removeEmployee(EmployeeInterface): Boolean&lt;br&gt;&lt;/p&gt;&lt;p style=&quot;margin:0px;margin-left:4px;&quot;&gt;+ getEmployees():&amp;nbsp; Array&amp;lt;EmployeeInterface&amp;gt;&lt;/p&gt;&lt;p style=&quot;margin:0px;margin-left:4px;&quot;&gt;+ getName(): String&lt;/p&gt;&amp;nbsp;+ setName(String)" style="text;strokeColor=none;fillColor=none;align=left;verticalAlign=top;spacingLeft=4;spacingRight=4;overflow=hidden;rotatable=0;points=[[0,0.5],[1,0.5]];portConstraint=eastwest;whiteSpace=wrap;html=1;" vertex="1" parent="CI_QqTWLjoRGF37UJHZO-3">
          <mxGeometry y="60" width="280" height="100" as="geometry" />
        </mxCell>
        <mxCell id="CI_QqTWLjoRGF37UJHZO-12" style="edgeStyle=orthogonalEdgeStyle;rounded=0;orthogonalLoop=1;jettySize=auto;html=1;exitX=0.5;exitY=0;exitDx=0;exitDy=0;endSize=18;endArrow=block;endFill=0;dashed=1;" edge="1" parent="1" source="CI_QqTWLjoRGF37UJHZO-7" target="CI_QqTWLjoRGF37UJHZO-1">
          <mxGeometry relative="1" as="geometry" />
        </mxCell>
        <mxCell id="CI_QqTWLjoRGF37UJHZO-7" value="CompanyComposite" style="swimlane;fontStyle=1;align=center;verticalAlign=top;childLayout=stackLayout;horizontal=1;startSize=26;horizontalStack=0;resizeParent=1;resizeParentMax=0;resizeLast=0;collapsible=1;marginBottom=0;whiteSpace=wrap;html=1;" vertex="1" parent="1">
          <mxGeometry x="440" y="1084" width="280" height="180" as="geometry" />
        </mxCell>
        <mxCell id="CI_QqTWLjoRGF37UJHZO-8" value="&lt;div&gt;- Name: String&lt;br&gt;&lt;/div&gt;" style="text;strokeColor=none;fillColor=none;align=left;verticalAlign=top;spacingLeft=4;spacingRight=4;overflow=hidden;rotatable=0;points=[[0,0.5],[1,0.5]];portConstraint=eastwest;whiteSpace=wrap;html=1;" vertex="1" parent="CI_QqTWLjoRGF37UJHZO-7">
          <mxGeometry y="26" width="280" height="26" as="geometry" />
        </mxCell>
        <mxCell id="CI_QqTWLjoRGF37UJHZO-9" value="" style="line;strokeWidth=1;fillColor=none;align=left;verticalAlign=middle;spacingTop=-1;spacingLeft=3;spacingRight=3;rotatable=0;labelPosition=right;points=[];portConstraint=eastwest;strokeColor=inherit;" vertex="1" parent="CI_QqTWLjoRGF37UJHZO-7">
          <mxGeometry y="52" width="280" height="8" as="geometry" />
        </mxCell>
        <mxCell id="CI_QqTWLjoRGF37UJHZO-10" value="&lt;p style=&quot;margin:0px;margin-left:4px;&quot;&gt;+ addEmployee(EmployeeInterface)&lt;/p&gt;&lt;p style=&quot;margin:0px;margin-left:4px;&quot;&gt;+ removeEmployee(EmployeeInterface): Boolean&lt;br&gt;&lt;/p&gt;&lt;p style=&quot;margin:0px;margin-left:4px;&quot;&gt;+ getEmployees():&amp;nbsp; Array&amp;lt;EmployeeInterface&amp;gt;&lt;/p&gt;&lt;p style=&quot;margin:0px;margin-left:4px;&quot;&gt;+ getName(): String&lt;/p&gt;&lt;div&gt;&amp;nbsp;+ setName(String)&lt;/div&gt;&lt;div&gt;&amp;nbsp;+ addCompany(CompanyInterface)&lt;/div&gt;&lt;div&gt;&amp;nbsp;+ removeCompany(CompanyInterface): Boolean&lt;br&gt;&lt;/div&gt;" style="text;strokeColor=none;fillColor=none;align=left;verticalAlign=top;spacingLeft=4;spacingRight=4;overflow=hidden;rotatable=0;points=[[0,0.5],[1,0.5]];portConstraint=eastwest;whiteSpace=wrap;html=1;" vertex="1" parent="CI_QqTWLjoRGF37UJHZO-7">
          <mxGeometry y="60" width="280" height="120" as="geometry" />
        </mxCell>
        <mxCell id="CI_QqTWLjoRGF37UJHZO-14" style="edgeStyle=orthogonalEdgeStyle;rounded=0;orthogonalLoop=1;jettySize=auto;html=1;exitX=1;exitY=0.5;exitDx=0;exitDy=0;entryX=1;entryY=0.75;entryDx=0;entryDy=0;startArrow=diamondThin;startFill=0;startSize=30;strokeWidth=1;endSize=12;" edge="1" parent="1" source="CI_QqTWLjoRGF37UJHZO-8" target="CI_QqTWLjoRGF37UJHZO-1">
          <mxGeometry relative="1" as="geometry" />
        </mxCell>
        <mxCell id="CI_QqTWLjoRGF37UJHZO-15" value="1..*" style="text;html=1;align=center;verticalAlign=middle;resizable=0;points=[];autosize=1;strokeColor=none;fillColor=none;" vertex="1" parent="1">
          <mxGeometry x="531" y="912" width="40" height="30" as="geometry" />
        </mxCell>
        <mxCell id="CI_QqTWLjoRGF37UJHZO-16" value="company_structures{List}" style="text;html=1;align=center;verticalAlign=middle;resizable=0;points=[];autosize=1;strokeColor=none;fillColor=none;" vertex="1" parent="1">
          <mxGeometry x="581" y="944" width="160" height="30" as="geometry" />
        </mxCell>
        <mxCell id="CI_QqTWLjoRGF37UJHZO-18" value="&lt;p style=&quot;margin:0px;margin-top:4px;text-align:center;&quot;&gt;&lt;i&gt;&amp;lt;&amp;lt;Interface&amp;gt;&amp;gt;&lt;/i&gt;&lt;br&gt;&lt;b&gt;EmployeeInterface&lt;/b&gt;&lt;/p&gt;&lt;hr size=&quot;1&quot; style=&quot;border-style:solid;&quot;&gt;&lt;hr size=&quot;1&quot; style=&quot;border-style:solid;&quot;&gt;&lt;p style=&quot;margin:0px;margin-left:4px;&quot;&gt;+ getName(): String&lt;/p&gt;&lt;p style=&quot;margin:0px;margin-left:4px;&quot;&gt;+ setName(String)&lt;/p&gt;&lt;p style=&quot;margin:0px;margin-left:4px;&quot;&gt;+ getSalary(): Integer&lt;br&gt;&lt;/p&gt;" style="verticalAlign=top;align=left;overflow=fill;html=1;whiteSpace=wrap;" vertex="1" parent="1">
          <mxGeometry x="846.5" y="834" width="200" height="120" as="geometry" />
        </mxCell>
        <mxCell id="CI_QqTWLjoRGF37UJHZO-32" style="edgeStyle=orthogonalEdgeStyle;rounded=0;orthogonalLoop=1;jettySize=auto;html=1;exitX=0.5;exitY=0;exitDx=0;exitDy=0;entryX=0.5;entryY=1;entryDx=0;entryDy=0;endArrow=block;endFill=0;endSize=18;dashed=1;" edge="1" parent="1" source="CI_QqTWLjoRGF37UJHZO-20" target="CI_QqTWLjoRGF37UJHZO-18">
          <mxGeometry relative="1" as="geometry" />
        </mxCell>
        <mxCell id="CI_QqTWLjoRGF37UJHZO-20" value="Worker" style="swimlane;fontStyle=1;align=center;verticalAlign=top;childLayout=stackLayout;horizontal=1;startSize=26;horizontalStack=0;resizeParent=1;resizeParentMax=0;resizeLast=0;collapsible=1;marginBottom=0;whiteSpace=wrap;html=1;" vertex="1" parent="1">
          <mxGeometry x="1030" y="1044" width="160" height="210" as="geometry" />
        </mxCell>
        <mxCell id="CI_QqTWLjoRGF37UJHZO-21" value="&lt;div&gt;- name: String&lt;/div&gt;&lt;div&gt;- wage: Integer&lt;/div&gt;&lt;div&gt;- hours: Integer&lt;br&gt;&lt;/div&gt;" style="text;strokeColor=none;fillColor=none;align=left;verticalAlign=top;spacingLeft=4;spacingRight=4;overflow=hidden;rotatable=0;points=[[0,0.5],[1,0.5]];portConstraint=eastwest;whiteSpace=wrap;html=1;" vertex="1" parent="CI_QqTWLjoRGF37UJHZO-20">
          <mxGeometry y="26" width="160" height="54" as="geometry" />
        </mxCell>
        <mxCell id="CI_QqTWLjoRGF37UJHZO-22" value="" style="line;strokeWidth=1;fillColor=none;align=left;verticalAlign=middle;spacingTop=-1;spacingLeft=3;spacingRight=3;rotatable=0;labelPosition=right;points=[];portConstraint=eastwest;strokeColor=inherit;" vertex="1" parent="CI_QqTWLjoRGF37UJHZO-20">
          <mxGeometry y="80" width="160" height="8" as="geometry" />
        </mxCell>
        <mxCell id="CI_QqTWLjoRGF37UJHZO-23" value="&lt;p style=&quot;margin:0px;margin-left:4px;&quot;&gt;+ getName(): String&lt;/p&gt;&lt;p style=&quot;margin:0px;margin-left:4px;&quot;&gt;+ setName(String)&lt;/p&gt;&lt;div&gt;&amp;nbsp;+ getSalary(): Integer&lt;/div&gt;&lt;div&gt;&amp;nbsp;+ getHours(): Integer&lt;/div&gt;&lt;div&gt;&amp;nbsp;+ setHours(Integer)&lt;/div&gt;&lt;div&gt;&amp;nbsp;+ getSalary(): Integer&lt;/div&gt;&lt;div&gt;&amp;nbsp;+ setSalary(Integer)&lt;br&gt;&lt;/div&gt;" style="text;strokeColor=none;fillColor=none;align=left;verticalAlign=top;spacingLeft=4;spacingRight=4;overflow=hidden;rotatable=0;points=[[0,0.5],[1,0.5]];portConstraint=eastwest;whiteSpace=wrap;html=1;" vertex="1" parent="CI_QqTWLjoRGF37UJHZO-20">
          <mxGeometry y="88" width="160" height="122" as="geometry" />
        </mxCell>
        <mxCell id="CI_QqTWLjoRGF37UJHZO-31" style="edgeStyle=orthogonalEdgeStyle;rounded=0;orthogonalLoop=1;jettySize=auto;html=1;exitX=0.5;exitY=0;exitDx=0;exitDy=0;endArrow=block;endFill=0;endSize=18;dashed=1;" edge="1" parent="1" source="CI_QqTWLjoRGF37UJHZO-24" target="CI_QqTWLjoRGF37UJHZO-18">
          <mxGeometry relative="1" as="geometry" />
        </mxCell>
        <mxCell id="CI_QqTWLjoRGF37UJHZO-24" value="Researcher" style="swimlane;fontStyle=1;align=center;verticalAlign=top;childLayout=stackLayout;horizontal=1;startSize=26;horizontalStack=0;resizeParent=1;resizeParentMax=0;resizeLast=0;collapsible=1;marginBottom=0;whiteSpace=wrap;html=1;" vertex="1" parent="1">
          <mxGeometry x="790" y="1044" width="200" height="160" as="geometry" />
        </mxCell>
        <mxCell id="CI_QqTWLjoRGF37UJHZO-25" value="&lt;div&gt;- name: String&lt;/div&gt;&lt;div&gt;- num_research_projects: Integer&lt;br&gt;&lt;/div&gt;" style="text;strokeColor=none;fillColor=none;align=left;verticalAlign=top;spacingLeft=4;spacingRight=4;overflow=hidden;rotatable=0;points=[[0,0.5],[1,0.5]];portConstraint=eastwest;whiteSpace=wrap;html=1;" vertex="1" parent="CI_QqTWLjoRGF37UJHZO-24">
          <mxGeometry y="26" width="200" height="44" as="geometry" />
        </mxCell>
        <mxCell id="CI_QqTWLjoRGF37UJHZO-26" value="" style="line;strokeWidth=1;fillColor=none;align=left;verticalAlign=middle;spacingTop=-1;spacingLeft=3;spacingRight=3;rotatable=0;labelPosition=right;points=[];portConstraint=eastwest;strokeColor=inherit;" vertex="1" parent="CI_QqTWLjoRGF37UJHZO-24">
          <mxGeometry y="70" width="200" height="8" as="geometry" />
        </mxCell>
        <mxCell id="CI_QqTWLjoRGF37UJHZO-27" value="&lt;p style=&quot;margin:0px;margin-left:4px;&quot;&gt;+ getName(): String&lt;/p&gt;&lt;p style=&quot;margin:0px;margin-left:4px;&quot;&gt;+ setName(String)&lt;/p&gt;&lt;div&gt;&amp;nbsp;+ getNumberOfProjects(): Integer&lt;/div&gt;&lt;div&gt;&amp;nbsp;+ setNumberOfProjects(Integer)&lt;br&gt;&lt;/div&gt;" style="text;strokeColor=none;fillColor=none;align=left;verticalAlign=top;spacingLeft=4;spacingRight=4;overflow=hidden;rotatable=0;points=[[0,0.5],[1,0.5]];portConstraint=eastwest;whiteSpace=wrap;html=1;" vertex="1" parent="CI_QqTWLjoRGF37UJHZO-24">
          <mxGeometry y="78" width="200" height="82" as="geometry" />
        </mxCell>
        <mxCell id="CI_QqTWLjoRGF37UJHZO-29" value="1..*" style="text;html=1;align=center;verticalAlign=middle;resizable=0;points=[];autosize=1;strokeColor=none;fillColor=none;" vertex="1" parent="1">
          <mxGeometry x="780" y="830" width="40" height="30" as="geometry" />
        </mxCell>
        <mxCell id="CI_QqTWLjoRGF37UJHZO-30" value="1" style="text;html=1;align=center;verticalAlign=middle;resizable=0;points=[];autosize=1;strokeColor=none;fillColor=none;" vertex="1" parent="1">
          <mxGeometry x="526" y="842" width="30" height="30" as="geometry" />
        </mxCell>
        <mxCell id="CI_QqTWLjoRGF37UJHZO-43" style="edgeStyle=orthogonalEdgeStyle;rounded=0;orthogonalLoop=1;jettySize=auto;html=1;exitX=0;exitY=0.25;exitDx=0;exitDy=0;entryX=0.25;entryY=0;entryDx=0;entryDy=0;dashed=1;" edge="1" parent="1" source="CI_QqTWLjoRGF37UJHZO-33" target="CI_QqTWLjoRGF37UJHZO-18">
          <mxGeometry relative="1" as="geometry">
            <Array as="points">
              <mxPoint x="897" y="442" />
              <mxPoint x="897" y="800" />
            </Array>
          </mxGeometry>
        </mxCell>
        <mxCell id="CI_QqTWLjoRGF37UJHZO-33" value="&lt;p style=&quot;margin:0px;margin-top:4px;text-align:center;&quot;&gt;&lt;i&gt;&amp;lt;&amp;lt;Interface&amp;gt;&amp;gt;&lt;/i&gt;&lt;br&gt;&lt;b&gt;AccountingStrategyInterface&lt;/b&gt;&lt;/p&gt;&lt;hr size=&quot;1&quot; style=&quot;border-style:solid;&quot;&gt;&lt;hr size=&quot;1&quot; style=&quot;border-style:solid;&quot;&gt;&lt;p style=&quot;margin:0px;margin-left:4px;&quot;&gt;+ applyStrategy(Array&amp;lt;EmployeeInterface&amp;gt;): Double&lt;br&gt;&lt;/p&gt;" style="verticalAlign=top;align=left;overflow=fill;html=1;whiteSpace=wrap;" vertex="1" parent="1">
          <mxGeometry x="940" y="422" width="300.5" height="80" as="geometry" />
        </mxCell>
        <mxCell id="QyA1cuE5V23HtpEXrZg9-12" style="edgeStyle=orthogonalEdgeStyle;rounded=0;orthogonalLoop=1;jettySize=auto;html=1;exitX=1;exitY=0.5;exitDx=0;exitDy=0;entryX=1;entryY=0.5;entryDx=0;entryDy=0;endArrow=block;endFill=0;endSize=12;dashed=1;" edge="1" parent="1" source="CI_QqTWLjoRGF37UJHZO-34" target="CI_QqTWLjoRGF37UJHZO-33">
          <mxGeometry relative="1" as="geometry">
            <Array as="points">
              <mxPoint x="1280" y="555" />
              <mxPoint x="1280" y="462" />
            </Array>
          </mxGeometry>
        </mxCell>
        <mxCell id="CI_QqTWLjoRGF37UJHZO-34" value="AverageSalaryStrategy" style="swimlane;fontStyle=1;align=center;verticalAlign=top;childLayout=stackLayout;horizontal=1;startSize=26;horizontalStack=0;resizeParent=1;resizeParentMax=0;resizeLast=0;collapsible=1;marginBottom=0;whiteSpace=wrap;html=1;" vertex="1" parent="1">
          <mxGeometry x="921.5" y="525" width="300" height="60" as="geometry" />
        </mxCell>
        <mxCell id="CI_QqTWLjoRGF37UJHZO-36" value="" style="line;strokeWidth=1;fillColor=none;align=left;verticalAlign=middle;spacingTop=-1;spacingLeft=3;spacingRight=3;rotatable=0;labelPosition=right;points=[];portConstraint=eastwest;strokeColor=inherit;" vertex="1" parent="CI_QqTWLjoRGF37UJHZO-34">
          <mxGeometry y="26" width="300" height="8" as="geometry" />
        </mxCell>
        <mxCell id="CI_QqTWLjoRGF37UJHZO-37" value="+ applyStrategy(Array&amp;lt;EmployeeInterface&amp;gt;): Double" style="text;strokeColor=none;fillColor=none;align=left;verticalAlign=top;spacingLeft=4;spacingRight=4;overflow=hidden;rotatable=0;points=[[0,0.5],[1,0.5]];portConstraint=eastwest;whiteSpace=wrap;html=1;" vertex="1" parent="CI_QqTWLjoRGF37UJHZO-34">
          <mxGeometry y="34" width="300" height="26" as="geometry" />
        </mxCell>
        <mxCell id="CI_QqTWLjoRGF37UJHZO-38" value="TotalSalaryStrategy" style="swimlane;fontStyle=1;align=center;verticalAlign=top;childLayout=stackLayout;horizontal=1;startSize=26;horizontalStack=0;resizeParent=1;resizeParentMax=0;resizeLast=0;collapsible=1;marginBottom=0;whiteSpace=wrap;html=1;" vertex="1" parent="1">
          <mxGeometry x="921.5" y="600" width="300" height="60" as="geometry" />
        </mxCell>
        <mxCell id="CI_QqTWLjoRGF37UJHZO-39" value="" style="line;strokeWidth=1;fillColor=none;align=left;verticalAlign=middle;spacingTop=-1;spacingLeft=3;spacingRight=3;rotatable=0;labelPosition=right;points=[];portConstraint=eastwest;strokeColor=inherit;" vertex="1" parent="CI_QqTWLjoRGF37UJHZO-38">
          <mxGeometry y="26" width="300" height="8" as="geometry" />
        </mxCell>
        <mxCell id="CI_QqTWLjoRGF37UJHZO-40" value="+ applyStrategy(Array&amp;lt;EmployeeInterface&amp;gt;): Double" style="text;strokeColor=none;fillColor=none;align=left;verticalAlign=top;spacingLeft=4;spacingRight=4;overflow=hidden;rotatable=0;points=[[0,0.5],[1,0.5]];portConstraint=eastwest;whiteSpace=wrap;html=1;" vertex="1" parent="CI_QqTWLjoRGF37UJHZO-38">
          <mxGeometry y="34" width="300" height="26" as="geometry" />
        </mxCell>
        <mxCell id="CI_QqTWLjoRGF37UJHZO-48" style="edgeStyle=orthogonalEdgeStyle;rounded=0;orthogonalLoop=1;jettySize=auto;html=1;exitX=0.5;exitY=1;exitDx=0;exitDy=0;dashed=1;" edge="1" parent="1" source="CI_QqTWLjoRGF37UJHZO-44" target="CI_QqTWLjoRGF37UJHZO-1">
          <mxGeometry relative="1" as="geometry" />
        </mxCell>
        <mxCell id="CI_QqTWLjoRGF37UJHZO-44" value="Accounting" style="swimlane;fontStyle=1;align=center;verticalAlign=top;childLayout=stackLayout;horizontal=1;startSize=26;horizontalStack=0;resizeParent=1;resizeParentMax=0;resizeLast=0;collapsible=1;marginBottom=0;whiteSpace=wrap;html=1;" vertex="1" parent="1">
          <mxGeometry x="150" y="422" width="420" height="80" as="geometry" />
        </mxCell>
        <mxCell id="CI_QqTWLjoRGF37UJHZO-46" value="" style="line;strokeWidth=1;fillColor=none;align=left;verticalAlign=middle;spacingTop=-1;spacingLeft=3;spacingRight=3;rotatable=0;labelPosition=right;points=[];portConstraint=eastwest;strokeColor=inherit;" vertex="1" parent="CI_QqTWLjoRGF37UJHZO-44">
          <mxGeometry y="26" width="420" height="8" as="geometry" />
        </mxCell>
        <mxCell id="CI_QqTWLjoRGF37UJHZO-47" value="+ doAccounting(CompanyInterface, AccountingStrategyInterface): Double" style="text;strokeColor=none;fillColor=none;align=left;verticalAlign=top;spacingLeft=4;spacingRight=4;overflow=hidden;rotatable=0;points=[[0,0.5],[1,0.5]];portConstraint=eastwest;whiteSpace=wrap;html=1;" vertex="1" parent="CI_QqTWLjoRGF37UJHZO-44">
          <mxGeometry y="34" width="420" height="46" as="geometry" />
        </mxCell>
        <mxCell id="CI_QqTWLjoRGF37UJHZO-49" style="edgeStyle=orthogonalEdgeStyle;rounded=0;orthogonalLoop=1;jettySize=auto;html=1;exitX=1;exitY=0.5;exitDx=0;exitDy=0;entryX=0;entryY=0.75;entryDx=0;entryDy=0;dashed=1;endSize=12;" edge="1" parent="1" source="CI_QqTWLjoRGF37UJHZO-47" target="CI_QqTWLjoRGF37UJHZO-33">
          <mxGeometry relative="1" as="geometry">
            <Array as="points">
              <mxPoint x="570" y="482" />
            </Array>
          </mxGeometry>
        </mxCell>
        <mxCell id="CI_QqTWLjoRGF37UJHZO-50" value="1..*" style="text;html=1;align=center;verticalAlign=middle;resizable=0;points=[];autosize=1;strokeColor=none;fillColor=none;" vertex="1" parent="1">
          <mxGeometry x="850" y="790" width="40" height="30" as="geometry" />
        </mxCell>
        <mxCell id="CI_QqTWLjoRGF37UJHZO-52" value="1" style="text;html=1;align=center;verticalAlign=middle;resizable=0;points=[];autosize=1;strokeColor=none;fillColor=none;" vertex="1" parent="1">
          <mxGeometry x="385" y="800" width="30" height="30" as="geometry" />
        </mxCell>
        <mxCell id="CI_QqTWLjoRGF37UJHZO-53" value="1" style="text;html=1;align=center;verticalAlign=middle;resizable=0;points=[];autosize=1;strokeColor=none;fillColor=none;" vertex="1" parent="1">
          <mxGeometry x="385" y="528" width="30" height="30" as="geometry" />
        </mxCell>
        <mxCell id="CI_QqTWLjoRGF37UJHZO-55" value="1" style="text;html=1;align=center;verticalAlign=middle;resizable=0;points=[];autosize=1;strokeColor=none;fillColor=none;" vertex="1" parent="1">
          <mxGeometry x="581" y="450" width="30" height="30" as="geometry" />
        </mxCell>
        <mxCell id="QyA1cuE5V23HtpEXrZg9-1" value="1" style="text;html=1;align=center;verticalAlign=middle;resizable=0;points=[];autosize=1;strokeColor=none;fillColor=none;" vertex="1" parent="1">
          <mxGeometry x="731" y="1072" width="30" height="30" as="geometry" />
        </mxCell>
        <mxCell id="QyA1cuE5V23HtpEXrZg9-2" value="employees{List}" style="text;html=1;align=center;verticalAlign=middle;resizable=0;points=[];autosize=1;strokeColor=none;fillColor=none;" vertex="1" parent="1">
          <mxGeometry x="631" y="834" width="110" height="30" as="geometry" />
        </mxCell>
        <mxCell id="QyA1cuE5V23HtpEXrZg9-6" value="MinimımSalaryStraregy" style="swimlane;fontStyle=1;align=center;verticalAlign=top;childLayout=stackLayout;horizontal=1;startSize=26;horizontalStack=0;resizeParent=1;resizeParentMax=0;resizeLast=0;collapsible=1;marginBottom=0;whiteSpace=wrap;html=1;" vertex="1" parent="1">
          <mxGeometry x="921.5" y="677.5" width="300" height="60" as="geometry" />
        </mxCell>
        <mxCell id="QyA1cuE5V23HtpEXrZg9-7" value="" style="line;strokeWidth=1;fillColor=none;align=left;verticalAlign=middle;spacingTop=-1;spacingLeft=3;spacingRight=3;rotatable=0;labelPosition=right;points=[];portConstraint=eastwest;strokeColor=inherit;" vertex="1" parent="QyA1cuE5V23HtpEXrZg9-6">
          <mxGeometry y="26" width="300" height="8" as="geometry" />
        </mxCell>
        <mxCell id="QyA1cuE5V23HtpEXrZg9-8" value="+ applyStrategy(Array&amp;lt;EmployeeInterface&amp;gt;): Double" style="text;strokeColor=none;fillColor=none;align=left;verticalAlign=top;spacingLeft=4;spacingRight=4;overflow=hidden;rotatable=0;points=[[0,0.5],[1,0.5]];portConstraint=eastwest;whiteSpace=wrap;html=1;" vertex="1" parent="QyA1cuE5V23HtpEXrZg9-6">
          <mxGeometry y="34" width="300" height="26" as="geometry" />
        </mxCell>
        <mxCell id="QyA1cuE5V23HtpEXrZg9-9" value="MaximumSalaryStrategy" style="swimlane;fontStyle=1;align=center;verticalAlign=top;childLayout=stackLayout;horizontal=1;startSize=26;horizontalStack=0;resizeParent=1;resizeParentMax=0;resizeLast=0;collapsible=1;marginBottom=0;whiteSpace=wrap;html=1;" vertex="1" parent="1">
          <mxGeometry x="921.5" y="752.5" width="300" height="60" as="geometry" />
        </mxCell>
        <mxCell id="QyA1cuE5V23HtpEXrZg9-10" value="" style="line;strokeWidth=1;fillColor=none;align=left;verticalAlign=middle;spacingTop=-1;spacingLeft=3;spacingRight=3;rotatable=0;labelPosition=right;points=[];portConstraint=eastwest;strokeColor=inherit;" vertex="1" parent="QyA1cuE5V23HtpEXrZg9-9">
          <mxGeometry y="26" width="300" height="8" as="geometry" />
        </mxCell>
        <mxCell id="QyA1cuE5V23HtpEXrZg9-11" value="+ applyStrategy(Array&amp;lt;EmployeeInterface&amp;gt;): Double" style="text;strokeColor=none;fillColor=none;align=left;verticalAlign=top;spacingLeft=4;spacingRight=4;overflow=hidden;rotatable=0;points=[[0,0.5],[1,0.5]];portConstraint=eastwest;whiteSpace=wrap;html=1;" vertex="1" parent="QyA1cuE5V23HtpEXrZg9-9">
          <mxGeometry y="34" width="300" height="26" as="geometry" />
        </mxCell>
        <mxCell id="QyA1cuE5V23HtpEXrZg9-13" style="edgeStyle=orthogonalEdgeStyle;rounded=0;orthogonalLoop=1;jettySize=auto;html=1;exitX=1;exitY=0.5;exitDx=0;exitDy=0;entryX=1;entryY=0.5;entryDx=0;entryDy=0;endArrow=block;endFill=0;endSize=12;dashed=1;" edge="1" parent="1" source="CI_QqTWLjoRGF37UJHZO-38" target="CI_QqTWLjoRGF37UJHZO-33">
          <mxGeometry relative="1" as="geometry">
            <mxPoint x="1254.5" y="573" as="sourcePoint" />
            <mxPoint x="1287.5" y="480" as="targetPoint" />
            <Array as="points">
              <mxPoint x="1290" y="630" />
              <mxPoint x="1290" y="462" />
            </Array>
          </mxGeometry>
        </mxCell>
        <mxCell id="QyA1cuE5V23HtpEXrZg9-14" style="edgeStyle=orthogonalEdgeStyle;rounded=0;orthogonalLoop=1;jettySize=auto;html=1;exitX=1;exitY=0.5;exitDx=0;exitDy=0;entryX=1;entryY=0.5;entryDx=0;entryDy=0;endArrow=block;endFill=0;endSize=12;dashed=1;" edge="1" parent="1" source="QyA1cuE5V23HtpEXrZg9-6" target="CI_QqTWLjoRGF37UJHZO-33">
          <mxGeometry relative="1" as="geometry">
            <mxPoint x="1320" y="595" as="sourcePoint" />
            <mxPoint x="1353" y="502" as="targetPoint" />
            <Array as="points">
              <mxPoint x="1222" y="710" />
              <mxPoint x="1300" y="710" />
              <mxPoint x="1300" y="462" />
            </Array>
          </mxGeometry>
        </mxCell>
        <mxCell id="QyA1cuE5V23HtpEXrZg9-15" style="edgeStyle=orthogonalEdgeStyle;rounded=0;orthogonalLoop=1;jettySize=auto;html=1;exitX=1;exitY=0.5;exitDx=0;exitDy=0;entryX=1;entryY=0.5;entryDx=0;entryDy=0;endArrow=block;endFill=0;endSize=12;dashed=1;" edge="1" parent="1" source="QyA1cuE5V23HtpEXrZg9-9" target="CI_QqTWLjoRGF37UJHZO-33">
          <mxGeometry relative="1" as="geometry">
            <mxPoint x="1300" y="783" as="sourcePoint" />
            <mxPoint x="1333" y="690" as="targetPoint" />
            <Array as="points">
              <mxPoint x="1310" y="783" />
              <mxPoint x="1310" y="462" />
            </Array>
          </mxGeometry>
        </mxCell>
        <mxCell id="QyA1cuE5V23HtpEXrZg9-18" value="" style="endArrow=circle;dashed=1;html=1;dashPattern=1 3;strokeWidth=2;rounded=0;endFill=0;startArrow=none;startFill=0;targetPerimeterSpacing=0;sourcePerimeterSpacing=0;endSize=6;exitX=0.5;exitY=0;exitDx=0;exitDy=0;exitPerimeter=0;" edge="1" parent="1" source="SvdenFysVi3e6LGzRsrv-1">
          <mxGeometry width="50" height="50" relative="1" as="geometry">
            <mxPoint x="630" y="560" as="sourcePoint" />
            <mxPoint x="630" y="480" as="targetPoint" />
          </mxGeometry>
        </mxCell>
        <mxCell id="QyA1cuE5V23HtpEXrZg9-19" value="" style="endArrow=circle;dashed=1;html=1;dashPattern=1 3;strokeWidth=2;rounded=0;endFill=0;startArrow=none;startFill=0;targetPerimeterSpacing=0;sourcePerimeterSpacing=0;endSize=6;exitX=1;exitY=0.5;exitDx=0;exitDy=0;exitPerimeter=0;" edge="1" parent="1" source="SvdenFysVi3e6LGzRsrv-1">
          <mxGeometry width="50" height="50" relative="1" as="geometry">
            <mxPoint x="700" y="599.5" as="sourcePoint" />
            <mxPoint x="900" y="600" as="targetPoint" />
          </mxGeometry>
        </mxCell>
        <mxCell id="QyA1cuE5V23HtpEXrZg9-20" value="Payroll System" style="swimlane;whiteSpace=wrap;html=1;" vertex="1" parent="1">
          <mxGeometry x="20" y="380" width="1320" height="900" as="geometry" />
        </mxCell>
        <mxCell id="QyA1cuE5V23HtpEXrZg9-21" value="&lt;div style=&quot;font-size: 24px;&quot;&gt;Fatih Baskın&lt;/div&gt;&lt;div style=&quot;font-size: 24px;&quot;&gt;150210710&lt;br style=&quot;font-size: 24px;&quot;&gt;&lt;/div&gt;" style="shape=card;whiteSpace=wrap;html=1;fontSize=24;size=34;" vertex="1" parent="QyA1cuE5V23HtpEXrZg9-20">
          <mxGeometry x="20" y="160" width="180" height="100" as="geometry" />
        </mxCell>
        <mxCell id="CI_QqTWLjoRGF37UJHZO-51" value="1" style="text;html=1;align=center;verticalAlign=middle;resizable=0;points=[];autosize=1;strokeColor=none;fillColor=none;" vertex="1" parent="QyA1cuE5V23HtpEXrZg9-20">
          <mxGeometry x="880" y="30" width="30" height="30" as="geometry" />
        </mxCell>
        <mxCell id="CI_QqTWLjoRGF37UJHZO-54" value="1" style="text;html=1;align=center;verticalAlign=middle;resizable=0;points=[];autosize=1;strokeColor=none;fillColor=none;" vertex="1" parent="QyA1cuE5V23HtpEXrZg9-20">
          <mxGeometry x="880" y="110" width="30" height="30" as="geometry" />
        </mxCell>
        <mxCell id="SvdenFysVi3e6LGzRsrv-1" value="Parameter Visibility" style="shape=card;whiteSpace=wrap;html=1;rotation=0;" vertex="1" parent="QyA1cuE5V23HtpEXrZg9-20">
          <mxGeometry x="540" y="190" width="140" height="60" as="geometry" />
        </mxCell>
        <mxCell id="QyA1cuE5V23HtpEXrZg9-17" value="" style="endArrow=circle;dashed=1;html=1;dashPattern=1 3;strokeWidth=2;rounded=0;endFill=0;startArrow=none;startFill=0;targetPerimeterSpacing=0;sourcePerimeterSpacing=0;endSize=6;exitX=0;exitY=0.5;exitDx=0;exitDy=0;exitPerimeter=0;" edge="1" parent="QyA1cuE5V23HtpEXrZg9-20">
          <mxGeometry width="50" height="50" relative="1" as="geometry">
            <mxPoint x="540" y="219.5" as="sourcePoint" />
            <mxPoint x="340" y="219.5" as="targetPoint" />
          </mxGeometry>
        </mxCell>
        <mxCell id="SvdenFysVi3e6LGzRsrv-2" value="Composite Design Patterm" style="shape=card;whiteSpace=wrap;html=1;" vertex="1" parent="QyA1cuE5V23HtpEXrZg9-20">
          <mxGeometry x="440" y="360" width="180" height="60" as="geometry" />
        </mxCell>
        <mxCell id="SvdenFysVi3e6LGzRsrv-4" value="Strategy Design Patterm" style="shape=card;whiteSpace=wrap;html=1;" vertex="1" parent="QyA1cuE5V23HtpEXrZg9-20">
          <mxGeometry x="660" y="320" width="180" height="60" as="geometry" />
        </mxCell>
        <mxCell id="SvdenFysVi3e6LGzRsrv-3" value="" style="endArrow=circle;dashed=1;html=1;dashPattern=1 3;strokeWidth=2;rounded=0;endFill=0;startArrow=none;startFill=0;targetPerimeterSpacing=0;sourcePerimeterSpacing=0;endSize=6;exitX=0.5;exitY=1;exitDx=0;exitDy=0;exitPerimeter=0;entryX=0.75;entryY=0;entryDx=0;entryDy=0;" edge="1" parent="1" source="SvdenFysVi3e6LGzRsrv-2" target="CI_QqTWLjoRGF37UJHZO-7">
          <mxGeometry width="50" height="50" relative="1" as="geometry">
            <mxPoint x="680" y="920" as="sourcePoint" />
            <mxPoint x="480" y="920" as="targetPoint" />
          </mxGeometry>
        </mxCell>
        <mxCell id="SvdenFysVi3e6LGzRsrv-5" value="" style="endArrow=circle;dashed=1;html=1;dashPattern=1 3;strokeWidth=2;rounded=0;endFill=0;startArrow=none;startFill=0;targetPerimeterSpacing=0;sourcePerimeterSpacing=0;endSize=6;exitX=0.5;exitY=0;exitDx=0;exitDy=0;exitPerimeter=0;entryX=0;entryY=1;entryDx=0;entryDy=0;" edge="1" parent="1" source="SvdenFysVi3e6LGzRsrv-4" target="CI_QqTWLjoRGF37UJHZO-33">
          <mxGeometry width="50" height="50" relative="1" as="geometry">
            <mxPoint x="560" y="810" as="sourcePoint" />
            <mxPoint x="660" y="1094" as="targetPoint" />
          </mxGeometry>
        </mxCell>
      </root>
    </mxGraphModel>
  </diagram>
</mxfile>
